<svg width="14" height="15" viewBox="0 0 14 15" fill="none" xmlns="http://www.w3.org/2000/svg">
<path fill-rule="evenodd" clip-rule="evenodd" d="M7.16647 0.333252C8.90241 0.333252 10.5673 1.02285 11.7947 2.25035C13.0222 3.47784 13.7118 5.14269 13.7118 6.87863C13.7118 9.11424 12.4929 10.944 11.2086 12.2567C10.5669 12.9055 9.86674 13.4937 9.11699 14.0138L8.80718 14.2247L8.66172 14.3214L8.38754 14.496L8.14318 14.6451L7.84064 14.8211C7.63529 14.9383 7.40292 14.9999 7.16647 14.9999C6.93002 14.9999 6.69765 14.9383 6.49229 14.8211L6.18975 14.6451L5.81158 14.4124L5.67194 14.3214L5.37376 14.1229C4.56492 13.5757 3.81153 12.9506 3.12434 12.2567C1.83999 10.9433 0.621094 9.11424 0.621094 6.87863C0.621094 5.14269 1.31069 3.47784 2.53819 2.25035C3.76569 1.02285 5.43053 0.333252 7.16647 0.333252ZM7.16647 1.78778C5.81629 1.78778 4.52141 2.32414 3.5667 3.27885C2.61198 4.23357 2.07562 5.52845 2.07562 6.87863C2.07562 8.56733 3.0007 10.0495 4.1636 11.2393C4.66361 11.7455 5.20406 12.21 5.77958 12.6284L6.11266 12.8655C6.2203 12.9406 6.32381 13.0104 6.4232 13.0749L6.70684 13.2567L6.95629 13.4087L7.16647 13.5316L7.49737 13.336L7.76428 13.1687C7.90634 13.0786 8.05834 12.9775 8.22027 12.8655L8.55336 12.6284C9.12887 12.21 9.66932 11.7455 10.1693 11.2393C11.3322 10.0502 12.2573 8.56733 12.2573 6.87863C12.2573 5.52845 11.721 4.23357 10.7662 3.27885C9.81152 2.32414 8.51664 1.78778 7.16647 1.78778ZM7.16647 3.96957C7.938 3.96957 8.67793 4.27606 9.22348 4.82161C9.76904 5.36717 10.0755 6.1071 10.0755 6.87863C10.0755 7.65016 9.76904 8.39009 9.22348 8.93564C8.67793 9.48119 7.938 9.78768 7.16647 9.78768C6.39494 9.78768 5.65501 9.48119 5.10946 8.93564C4.5639 8.39009 4.25741 7.65016 4.25741 6.87863C4.25741 6.1071 4.5639 5.36717 5.10946 4.82161C5.65501 4.27606 6.39494 3.96957 7.16647 3.96957ZM7.16647 5.4241C6.7807 5.4241 6.41074 5.57734 6.13796 5.85012C5.86519 6.1229 5.71194 6.49286 5.71194 6.87863C5.71194 7.26439 5.86519 7.63436 6.13796 7.90713C6.41074 8.17991 6.7807 8.33315 7.16647 8.33315C7.55223 8.33315 7.9222 8.17991 8.19497 7.90713C8.46775 7.63436 8.621 7.26439 8.621 6.87863C8.621 6.49286 8.46775 6.1229 8.19497 5.85012C7.9222 5.57734 7.55223 5.4241 7.16647 5.4241Z" fill="#061926" fill-opacity="0.8"/>
</svg>
